<svg xmlns="http://www.w3.org/2000/svg" width="1280" height="640" viewBox="0 0 1280 640">
  <defs>
    <linearGradient id="bg" x1="0" y1="0" x2="1" y2="1">
      <stop offset="0%" stop-color="#0A1628"/>
      <stop offset="100%" stop-color="#1E3A5F"/>
    </linearGradient>
    <linearGradient id="g1" x1="0" y1="0" x2="1" y2="1">
      <stop offset="0%" stop-color="#0A1628"/>
      <stop offset="100%" stop-color="#1E3A5F"/>
    </linearGradient>
    <linearGradient id="g2" x1="0" y1="0" x2="1" y2="1">
      <stop offset="0%" stop-color="#1E3A5F"/>
      <stop offset="100%" stop-color="#2B5EA7"/>
    </linearGradient>
    <linearGradient id="g3" x1="0" y1="0" x2="1" y2="1">
      <stop offset="0%" stop-color="#4A7FCF"/>
      <stop offset="100%" stop-color="#CD7F32"/>
    </linearGradient>
  </defs>

  <!-- Background -->
  <rect width="1280" height="640" fill="url(#bg)"/>

  <!-- Subtle grid pattern -->
  <g opacity="0.05" stroke="#4A7FCF" stroke-width="1">
    <line x1="0" y1="160" x2="1280" y2="160"/>
    <line x1="0" y1="320" x2="1280" y2="320"/>
    <line x1="0" y1="480" x2="1280" y2="480"/>
    <line x1="320" y1="0" x2="320" y2="640"/>
    <line x1="640" y1="0" x2="640" y2="640"/>
    <line x1="960" y1="0" x2="960" y2="640"/>
  </g>

  <!-- Logo (scaled up) -->
  <g transform="translate(540, 140) scale(5)">
    <path d="M16 26 L2 19 L16 12 L30 19 Z" fill="url(#g1)" opacity="0.9"/>
    <path d="M16 21 L2 14 L16 7 L30 14 Z" fill="url(#g2)" opacity="0.9"/>
    <path d="M16 16 L2 9 L16 2 L30 9 Z" fill="url(#g3)" opacity="0.95"/>
    <path d="M16 2 L2 9 L16 16 Z" fill="#fff" opacity="0.12"/>
  </g>

  <!-- Title -->
  <text x="640" y="420" text-anchor="middle" font-family="system-ui, -apple-system, sans-serif" font-size="64" font-weight="700" fill="#FFFFFF">Specialist Agent</text>

  <!-- Subtitle -->
  <text x="640" y="475" text-anchor="middle" font-family="system-ui, -apple-system, sans-serif" font-size="26" fill="#8BADD4">AI agents for Claude Code — any framework, any stack</text>

  <!-- Stats row -->
  <g transform="translate(640, 510)">
    <rect x="-225" y="-18" width="110" height="36" rx="18" fill="#2B5EA7" opacity="0.4"/>
    <text x="-170" y="6" text-anchor="middle" font-family="system-ui, sans-serif" font-size="16" fill="#8BADD4">26+ Agents</text>
    <rect x="-100" y="-18" width="100" height="36" rx="18" fill="#2B5EA7" opacity="0.4"/>
    <text x="-50" y="6" text-anchor="middle" font-family="system-ui, sans-serif" font-size="16" fill="#8BADD4">21 Skills</text>
    <rect x="15" y="-18" width="100" height="36" rx="18" fill="#2B5EA7" opacity="0.4"/>
    <text x="65" y="6" text-anchor="middle" font-family="system-ui, sans-serif" font-size="16" fill="#8BADD4">Lite Mode</text>
    <rect x="130" y="-18" width="95" height="36" rx="18" fill="#2B5EA7" opacity="0.4"/>
    <text x="177.5" y="6" text-anchor="middle" font-family="system-ui, sans-serif" font-size="16" fill="#8BADD4">7 Packs</text>
  </g>

  <!-- Frameworks row -->
  <g transform="translate(640, 560)">
    <rect x="-368.5" y="-18" width="95" height="36" rx="18" fill="#DD0031" opacity="0.3"/>
    <text x="-321" y="6" text-anchor="middle" font-family="system-ui, sans-serif" font-size="14" fill="#DD0031">Angular</text>
    <rect x="-261.5" y="-18" width="95" height="36" rx="18" fill="#FF5D01" opacity="0.3"/>
    <text x="-214" y="6" text-anchor="middle" font-family="system-ui, sans-serif" font-size="14" fill="#FF5D01">Astro</text>
    <rect x="-154.5" y="-18" width="95" height="36" rx="18" fill="#CCCCCC" opacity="0.15"/>
    <text x="-107" y="6" text-anchor="middle" font-family="system-ui, sans-serif" font-size="14" fill="#CCCCCC">Next.js</text>
    <rect x="-47.5" y="-18" width="95" height="36" rx="18" fill="#00DC82" opacity="0.3"/>
    <text x="0" y="6" text-anchor="middle" font-family="system-ui, sans-serif" font-size="14" fill="#00DC82">Nuxt</text>
    <rect x="59.5" y="-18" width="95" height="36" rx="18" fill="#61DAFB" opacity="0.3"/>
    <text x="107" y="6" text-anchor="middle" font-family="system-ui, sans-serif" font-size="14" fill="#61DAFB">React</text>
    <rect x="166.5" y="-18" width="95" height="36" rx="18" fill="#FF3E00" opacity="0.3"/>
    <text x="214" y="6" text-anchor="middle" font-family="system-ui, sans-serif" font-size="14" fill="#FF3E00">SvelteKit</text>
    <rect x="273.5" y="-18" width="95" height="36" rx="18" fill="#42b883" opacity="0.3"/>
    <text x="321" y="6" text-anchor="middle" font-family="system-ui, sans-serif" font-size="14" fill="#42b883">Vue 3</text>
  </g>
</svg>
